<?xml version="1.0" encoding="UTF-8" standalone="no"?><!DOCTYPE svg PUBLIC "-//W3C//DTD SVG 1.1//EN" "http://www.w3.org/Graphics/SVG/1.1/DTD/svg11.dtd"><svg width="1558px" height="2770px" version="1.1" xmlns="http://www.w3.org/2000/svg" xmlns:xlink="http://www.w3.org/1999/xlink" xml:space="preserve" xmlns:serif="http://www.serif.com/" style="fill-rule:evenodd;clip-rule:evenodd;stroke-linejoin:round;stroke-miterlimit:2;"><rect id="bgSmallerScreen" x="-0" y="0" width="1557.29" height="2769.9" style="fill:none;"/><clipPath id="_clip1"><rect x="-0" y="0" width="1557.29" height="2769.9"/></clipPath><g clip-path="url(#_clip1)"><g><path d="M547.74,509.79l-1481.48,-1381.5l199.76,-214.216l1481.48,1381.5l-199.76,214.217Z" style="fill:#d5929f;"/><path d="M498.976,945.207l-1481.48,-1381.5l199.76,-214.217l1481.48,1381.5l-199.76,214.216Z" style="fill:#d5929f;"/><path d="M82.472,1038.19l-1481.48,-1381.5l199.76,-214.216l1481.48,1381.5l-199.76,214.216Z" style="fill:#d5929f;"/></g><g><path d="M2611.19,3333.68l-1481.48,-1381.5l199.76,-214.216l1481.48,1381.5l-199.76,214.216Z" style="fill:#eed5dc;"/><path d="M2562.43,3769.1l-1481.48,-1381.5l199.76,-214.216l1481.48,1381.5l-199.76,214.216Z" style="fill:#eed5dc;"/><path d="M2145.92,3862.08l-1481.48,-1381.5l199.76,-214.216l1481.48,1381.5l-199.76,214.216Z" style="fill:#eed5dc;"/></g></g></svg>