<?xml version="1.0" encoding="UTF-8" standalone="no"?><!DOCTYPE svg PUBLIC "-//W3C//DTD SVG 1.1//EN" "http://www.w3.org/Graphics/SVG/1.1/DTD/svg11.dtd"><svg width="7667px" height="4250px" version="1.1" xmlns="http://www.w3.org/2000/svg" xmlns:xlink="http://www.w3.org/1999/xlink" xml:space="preserve" xmlns:serif="http://www.serif.com/" style="fill-rule:evenodd;clip-rule:evenodd;stroke-linejoin:round;stroke-miterlimit:2;"><rect id="Background-Bars" serif:id="Background Bars" x="-0" y="0" width="7666.67" height="4250" style="fill:none;"/><clipPath id="_clip1"><rect x="-0" y="0" width="7666.67" height="4250"/></clipPath><g clip-path="url(#_clip1)"><g><path d="M2019.59,1083.16l-5032.82,-4693.18l678.615,-727.727l5032.82,4693.18l-678.616,727.727Z" style="fill:#d5929f;"/><path d="M1853.93,2562.34l-5032.82,-4693.18l678.616,-727.726l5032.82,4693.18l-678.616,727.726Z" style="fill:#d5929f;"/><path d="M439.006,2878.23l-5032.82,-4693.18l678.616,-727.726l5032.82,4693.18l-678.616,727.726Z" style="fill:#d5929f;"/></g><g><path d="M10862.9,6441.91l-5032.82,-4693.18l678.616,-727.726l5032.82,4693.18l-678.616,727.726Z" style="fill:#eed5dc;"/><path d="M10697.2,7921.09l-5032.82,-4693.18l678.615,-727.727l5032.82,4693.18l-678.616,727.727Z" style="fill:#eed5dc;"/><path d="M9282.3,8236.98l-5032.82,-4693.18l678.616,-727.726l5032.82,4693.18l-678.616,727.726Z" style="fill:#eed5dc;"/></g></g></svg>